<svg version="1" xmlns="http://www.w3.org/2000/svg" width="800" height="800" viewBox="0 0 600.000000 600.000000"><path d="M17.4 2.4c-6.5 3-12 8.5-15 15L0 22.5v555l2.4 5.1c3 6.5 8.5 12 15 15l5.1 2.4h555l5.1-2.4c6.5-3 12-8.5 15-15l2.4-5.1v-555l-2.4-5.1c-3-6.5-8.5-12-15-15L577.5 0h-555l-5.1 2.4zm294.1 51c5.3 2.4 81.3 45.8 154 87.9 24.2 14 45.4 26.9 47.2 28.7 5.4 5.4 6.5 10.3 7.1 31.3.6 28 .6 28.1-8.7 38.6-8.6 9.5-31.7 31-48.1 44.6-16.6 13.9-40 31.1-62.3 46l-20.6 13.7-6.3-2.5c-9.9-4-15-4.9-24.5-4.5-9.9.4-17.4 3.2-24.9 9.3-12.6 10.3-18.6 30.5-13.8 46.5 6.1 20.5 27.2 33.5 49 30 12.4-2 21-7.4 29-18.2 4.7-6.4 5.9-10.6 7.4-25.4.5-5.6 1.2-10.8 1.6-11.8.3-.9 8.3-6.8 17.8-13.2 33.2-22.5 66.9-48.9 92.4-72.3l12.3-11.3-.3 73.9c-.3 72.9-.3 73.9-2.4 78.3-4 8.4-3.4 8-83.4 53.7-21.2 12.1-45.2 26-53.4 30.7l-15 8.7-8.8-8.8c-33.7-33.3-70.7-80.1-96.1-121.4l-4.7-7.6 2.4-5.4c3.4-7.4 5.6-16.3 5.6-22.6 0-6.5-3.7-17.6-7.9-23.7-10.3-15-32.2-22.3-49.3-16.5-30.6 10.3-40.4 47.6-18.8 71.2 8.9 9.7 19.5 13.7 36.4 13.7h9.2l2.2 3.8c4.4 7.8 23.8 36.2 35 51.2 19.4 25.8 37.7 47.3 59.1 69.2 5.8 5.9 10.3 11 10 11.2-.2.2-5.9 3.8-12.6 7.8-14.5 8.9-20.9 11.2-29.7 10.6-7.8-.5 3.6 5.9-193.7-108-14.6-8.4-20-13.2-21.9-19.5-1.3-4.5-2.6-47.3-1.6-52.8.6-3.1 3-6.1 12.9-16.3 29.5-30.1 65.4-59.3 107.5-87.3l19.3-12.9 3.7 1.9c9 4.6 21.7 6.7 31 5.2 12.3-2 23.3-9.3 30.1-19.9 11.3-18 6.7-44-10.3-57.1-8.1-6.3-13.8-8.4-23.9-8.9-15.9-.8-29.2 4.9-37.7 16.2-6.3 8.3-8.1 14.1-8.7 27.8l-.6 11.6-18.6 12.9c-34.2 23.6-60.5 43.9-83.4 64.3-6.5 5.8-14.1 12.5-16.9 15l-5 4.4.4-72.4c.4-82.1-.2-76.2 8.8-84.3 2.6-2.3 11.4-8 19.6-12.6 17.5-10 119.5-68.5 124-71.2l3-1.8 8.8 8.1c26.5 24.6 59.4 64.8 89 109l13.6 20.3-3.7 9c-3.4 8.3-3.7 9.8-3.8 19 0 8.1.4 11 2.2 15.5 9.7 23.7 38.1 34.6 60.7 23.3 9.1-4.6 18-14.4 21.2-23.5 5.7-16.3 2.7-32.5-8.3-44.8-8.7-9.7-19.5-14-35.4-14H370l-9.4-14.3C333.2 149 305.5 114.2 274.4 82c-11.9-12.3-12.6-13.1-10.8-14.5 5.7-4.2 21-12.9 25.6-14.5 7.5-2.7 16.1-2.6 22.3.4zm-56.9 147.5c5.9 2.7 8.7 7.2 9.2 14.6.3 5 0 6.6-2 9.5-3.7 5.4-8.3 8-14.2 8-15.1 0-23-16.6-13.3-27.7 5.6-6.3 12.6-7.9 20.3-4.4zm134.7 31.5c7.2 2.9 11.7 11.4 10.3 19-1.6 8.7-8.7 13.9-17.9 13.3-6.4-.4-9.8-2.3-13.5-7.8-3.2-4.6-2.8-13.8.7-18.8 4.3-6.1 13.5-8.6 20.4-5.7zM228 336.9c10.1 5.3 11.9 18.5 3.6 26.7-11.1 11.2-28.6 3.7-28.6-12.2 0-12.5 13.7-20.5 25-14.5zm134.4 30.5c4.7 3.5 6.8 7.8 6.8 13.6 0 20.7-29.9 23.3-33.7 2.9-1.4-7.3 3.4-15.9 10.5-18.8 4.4-1.9 12.5-.8 16.4 2.3z"/></svg>